<svg width="420" height="353" viewBox="0 0 420 353" fill="none" xmlns="http://www.w3.org/2000/svg">
<g clip-path="url(#clip0)">
<path d="M309 174C309 248.558 248.558 309 174 309C99.4416 309 39 248.558 39 174C39 99.4416 99.4416 39 174 39C248.558 39 309 99.4416 309 174Z" stroke="#EEEEEE" stroke-width="78"/>
<path d="M270 167H348V353H310C287.909 353 270 335.091 270 313V167Z" fill="#EEEEEE"/>
<g filter="url(#filter0_d)">
<path fill-rule="evenodd" clip-rule="evenodd" d="M347.5 145C387.541 145 420 112.541 420 72.5C420 32.4594 387.541 0 347.5 0C307.459 0 275 32.4594 275 72.5C275 112.541 307.459 145 347.5 145ZM359.358 102.85C361.098 100.75 361.968 97.27 361.968 92.41L361.878 55.87C361.878 52.21 361.098 49.66 359.538 48.22C358.038 46.72 355.068 45.97 350.628 45.97H345.948C343.788 45.91 342.108 45.88 340.908 45.88C337.848 45.88 335.448 46.54 333.708 47.86C332.028 49.12 331.188 50.74 331.188 52.72C331.188 55.18 332.118 56.95 333.978 58.03C335.838 59.05 338.208 59.56 341.088 59.56L341.268 93.13C341.328 96.37 341.718 98.95 342.438 100.87C343.218 102.79 344.328 104.11 345.768 104.83C347.208 105.55 349.098 105.91 351.438 105.91C354.978 105.91 357.618 104.89 359.358 102.85Z" fill="#4C89B5"/>
</g>
<path d="M361.968 92.41C361.968 97.27 361.098 100.75 359.358 102.85C357.618 104.89 354.978 105.91 351.438 105.91C349.098 105.91 347.208 105.55 345.768 104.83C344.328 104.11 343.218 102.79 342.438 100.87C341.718 98.95 341.328 96.37 341.268 93.13L341.088 59.56C338.208 59.56 335.838 59.05 333.978 58.03C332.118 56.95 331.188 55.18 331.188 52.72C331.188 50.74 332.028 49.12 333.708 47.86C335.448 46.54 337.848 45.88 340.908 45.88C342.108 45.88 343.788 45.91 345.948 45.97C348.168 45.97 349.728 45.97 350.628 45.97C355.068 45.97 358.038 46.72 359.538 48.22C361.098 49.66 361.878 52.21 361.878 55.87L361.968 92.41Z" fill="white"/>
</g>
<defs>
<filter id="filter0_d" x="215" y="-27" width="207" height="207" filterUnits="userSpaceOnUse" color-interpolation-filters="sRGB">
<feFlood flood-opacity="0" result="BackgroundImageFix"/>
<feColorMatrix in="SourceAlpha" type="matrix" values="0 0 0 0 0 0 0 0 0 0 0 0 0 0 0 0 0 0 127 0" result="hardAlpha"/>
<feOffset dx="-29" dy="4"/>
<feGaussianBlur stdDeviation="15.5"/>
<feComposite in2="hardAlpha" operator="out"/>
<feColorMatrix type="matrix" values="0 0 0 0 0 0 0 0 0 0 0 0 0 0 0 0 0 0 0.08 0"/>
<feBlend mode="normal" in2="BackgroundImageFix" result="effect1_dropShadow"/>
<feBlend mode="normal" in="SourceGraphic" in2="effect1_dropShadow" result="shape"/>
</filter>
<clipPath id="clip0">
<rect width="420" height="353" fill="white"/>
</clipPath>
</defs>
</svg>
