<svg width="422" height="380" viewBox="0 0 422 380" fill="none" xmlns="http://www.w3.org/2000/svg">
<path d="M309 201C309 275.558 248.558 336 174 336C99.4416 336 39 275.558 39 201C39 126.442 99.4416 66 174 66C248.558 66 309 126.442 309 201Z" stroke="#1A1A1A" stroke-width="78"/>
<path d="M270 194H348V380H310C287.909 380 270 362.091 270 340V194Z" fill="#1A1A1A"/>
<g filter="url(#filter0_d)">
<path fill-rule="evenodd" clip-rule="evenodd" d="M347.5 172C387.541 172 420 139.541 420 99.5C420 59.4594 387.541 27 347.5 27C307.459 27 275 59.4594 275 99.5C275 139.541 307.459 172 347.5 172ZM359.358 129.85C361.098 127.75 361.968 124.27 361.968 119.41L361.878 82.87C361.878 79.21 361.098 76.66 359.538 75.22C358.038 73.72 355.068 72.97 350.628 72.97H345.948C343.788 72.91 342.108 72.88 340.908 72.88C337.848 72.88 335.448 73.54 333.708 74.86C332.028 76.12 331.188 77.74 331.188 79.72C331.188 82.18 332.118 83.95 333.978 85.03C335.838 86.05 338.208 86.56 341.088 86.56L341.268 120.13C341.328 123.37 341.718 125.95 342.438 127.87C343.218 129.79 344.328 131.11 345.768 131.83C347.208 132.55 349.098 132.91 351.438 132.91C354.978 132.91 357.618 131.89 359.358 129.85Z" fill="#4C89B5"/>
</g>
<path d="M361.968 119.41C361.968 124.27 361.098 127.75 359.358 129.85C357.618 131.89 354.978 132.91 351.438 132.91C349.098 132.91 347.208 132.55 345.768 131.83C344.328 131.11 343.218 129.79 342.438 127.87C341.718 125.95 341.328 123.37 341.268 120.13L341.088 86.56C338.208 86.56 335.838 86.05 333.978 85.03C332.118 83.95 331.188 82.18 331.188 79.72C331.188 77.74 332.028 76.12 333.708 74.86C335.448 73.54 337.848 72.88 340.908 72.88C342.108 72.88 343.788 72.91 345.948 72.97C348.168 72.97 349.728 72.97 350.628 72.97C355.068 72.97 358.038 73.72 359.538 75.22C361.098 76.66 361.878 79.21 361.878 82.87L361.968 119.41Z" fill="white"/>
<defs>
<filter id="filter0_d" x="215" y="0" width="207" height="207" filterUnits="userSpaceOnUse" color-interpolation-filters="sRGB">
<feFlood flood-opacity="0" result="BackgroundImageFix"/>
<feColorMatrix in="SourceAlpha" type="matrix" values="0 0 0 0 0 0 0 0 0 0 0 0 0 0 0 0 0 0 127 0" result="hardAlpha"/>
<feOffset dx="-29" dy="4"/>
<feGaussianBlur stdDeviation="15.5"/>
<feComposite in2="hardAlpha" operator="out"/>
<feColorMatrix type="matrix" values="0 0 0 0 0 0 0 0 0 0 0 0 0 0 0 0 0 0 0.08 0"/>
<feBlend mode="normal" in2="BackgroundImageFix" result="effect1_dropShadow"/>
<feBlend mode="normal" in="SourceGraphic" in2="effect1_dropShadow" result="shape"/>
</filter>
</defs>
</svg>
